<?xml version="1.0" standalone="no"?>
<!DOCTYPE svg PUBLIC "-//W3C//DTD SVG 1.1//EN" "http://www.w3.org/Graphics/SVG/1.1/DTD/svg11.dtd" >
<svg xmlns="http://www.w3.org/2000/svg">
<metadata>
Created by FontForge 20120731 at Fri May  5 12:51:41 2017
 By admin
</metadata>
<defs>
<font id="iconfont" horiz-adv-x="1024" >
  <font-face 
    font-family="iconfont"
    font-weight="500"
    font-stretch="normal"
    units-per-em="1024"
    panose-1="2 0 6 3 0 0 0 0 0 0"
    ascent="896"
    descent="-128"
    x-height="792"
    bbox="-0.0322581 -204 1265 896"
    underline-thickness="0"
    underline-position="0"
    unicode-range="U+0078-EB89"
  />
<missing-glyph 
 />
    <glyph glyph-name=".notdef" 
 />
    <glyph glyph-name=".notdef" 
 />
    <glyph glyph-name=".null" horiz-adv-x="0" 
 />
    <glyph glyph-name="nonmarkingreturn" horiz-adv-x="341" 
 />
    <glyph glyph-name="x" unicode="x" horiz-adv-x="1001" 
d="M281 543q-27 -1 -53 -1h-83q-18 0 -36.5 -6t-32.5 -18.5t-23 -32t-9 -45.5v-76h912v41q0 16 -0.5 30t-0.5 18q0 13 -5 29t-17 29.5t-31.5 22.5t-49.5 9h-133v-97h-438v97zM955 310v-52q0 -23 0.5 -52t0.5 -58t-10.5 -47.5t-26 -30t-33 -16t-31.5 -4.5q-14 -1 -29.5 -0.5
t-29.5 0.5h-32l-45 128h-439l-44 -128h-29h-34q-20 0 -45 1q-25 0 -41 9.5t-25.5 23t-13.5 29.5t-4 30v167h911zM163 247q-12 0 -21 -8.5t-9 -21.5t9 -21.5t21 -8.5q13 0 22 8.5t9 21.5t-9 21.5t-22 8.5zM316 123q-8 -26 -14 -48q-5 -19 -10.5 -37t-7.5 -25t-3 -15t1 -14.5
t9.5 -10.5t21.5 -4h37h67h81h80h64h36q23 0 34 12t2 38q-5 13 -9.5 30.5t-9.5 34.5q-5 19 -11 39h-368zM336 498v228q0 11 2.5 23t10 21.5t20.5 15.5t34 6h188q31 0 51.5 -14.5t20.5 -52.5v-227h-327z" />
    <glyph glyph-name="tianjia" unicode="&#xe600;" 
d="M896 236h-320v-320h-128v320h-320v128h320v320h128v-320h320v-128z" />
    <glyph glyph-name="shoucang" unicode="&#xe61a;" 
d="M932 395h-321l-98 309l-99 -309h-320l258 -191l-98 -308l259 190l258 -190l-98 308zM717 -28l-204 150l-205 -150l78 243l-204 151h252l79 244l78 -244h252l-204 -151z" />
    <glyph glyph-name="shafa" unicode="&#xe656;" 
d="M241 237q4 70 -23.5 106t-78.5 54q-6 60 14.5 109.5t61 81t96 52.5t116.5 28t124.5 4.5t118.5 -16t100 -36t69 -51.5q22 -28 35 -75t13 -97q-26 -9 -43.5 -19.5t-33.5 -28t-22 -45.5t-3 -67h-544zM214 197q22 93 -26 139q-35 33 -76 16q-43 -18 -48 -82q-7 -69 18.5 -147
t56.5 -131q14 -5 16 -5h19v-34q0 -11 11 -19t26.5 -8t26.5 8t11 19v34h527v-34q0 -11 11 -19t26.5 -8t26.5 8t11 19v34h17q4 1 10 5.5t9 5.5q1 3 11.5 25t13.5 29.5t12.5 29.5t13 34t10.5 33.5t9 37t4 35.5t1 38.5t-5 36.5q-6 27 -26.5 43.5t-44 18.5t-45 -14t-30.5 -48
q-5 -22 -1 -35.5t3 -33t-12 -37.5q-7 7 -62 28q-203 79 -411 22q-58 -17 -114 -44z" />
    <glyph glyph-name="saoyisao" unicode="&#xe631;" 
d="M928 269h-833q-14 0 -23.5 9.5t-9.5 22.5t9.5 22.5t23.5 9.5h833q14 0 23 -9.5t9 -22.5t-9 -22.5t-23 -9.5v0zM832 -116h-192q-14 0 -23 9.5t-9 23t9 22.5t23 9h192q13 0 22.5 9.5t9.5 22.5v161q0 13 9.5 22.5t23 9.5t22.5 -9.5t9 -22.5v-161q0 -39 -28 -67.5t-68 -28.5
v0zM351 -116h-160q-40 0 -68 28.5t-28 67.5v161q0 13 9 22.5t22.5 9.5t23 -9.5t9.5 -22.5v-161q0 -13 9 -22.5t23 -9.5h160q13 0 22.5 -9t9.5 -22.5t-9.5 -23t-22.5 -9.5v0zM127 429q-14 0 -23 9.5t-9 22.5v161q0 40 28 68t68 28h160q13 0 22.5 -9.5t9.5 -22.5t-9.5 -22.5
t-22.5 -9.5h-160q-14 0 -23 -9.5t-9 -22.5v-161q0 -13 -9.5 -22.5t-22.5 -9.5v0zM896 429q-13 0 -22.5 9.5t-9.5 22.5v161q0 13 -9.5 22.5t-22.5 9.5h-192q-14 0 -23 9.5t-9 22.5t9 22.5t23 9.5h192q40 0 68 -28t28 -68v-161q0 -13 -9 -22.5t-23 -9.5v0zM896 429z" />
    <glyph glyph-name="shouji" unicode="&#xe647;" 
d="M703 751h-382q-43 0 -73.5 -30.5t-30.5 -73.5v-693q0 -43 30.5 -73.5t73.5 -30.5h382q43 0 73.5 30.5t30.5 73.5v693q0 43 -30.5 73.5t-73.5 30.5zM477 716h70q7 0 12 -5t5 -12t-5 -12t-12 -5h-70q-7 0 -12 5t-5 12t5 12t12 5zM512 -108q-18 0 -31 13t-13 31.5t13 31.5
t31 13t31 -13t13 -31.5t-13 -31.5t-31 -13zM737 40q0 -7 -5 -12t-12 -5h-416q-7 0 -12 5t-5 12v590q0 7 5 12t12 5h416q7 0 12 -5t5 -12v-590z" />
    <glyph glyph-name="zhifubao" unicode="&#xe606;" horiz-adv-x="1037" 
d="M666 198q31 56 55 118.5t32 96.5l9 34h-13v0h-109h-115v90h281v38h-281v135h-128v-135h-256v-38h256v-90h-218v-38h442q0 -7 -7 -13q0 -45 -57 -160q-48 19 -91.5 32.5t-78 22t-66.5 12.5t-55 5.5t-46 -0.5t-36.5 -4.5t-28.5 -7.5t-21 -8t-15.5 -8t-9.5 -6
q-45 -31 -69.5 -67t-28 -68.5t3.5 -64t23.5 -57t34 -44.5t33 -29t22.5 -9q286 -63 480 167q6 -7 19 -7q71 -38 410 -198v192q-9 0 -21.5 2t-31.5 6.5t-36 9t-43.5 13t-45 14t-50 16l-48 16t-50 16.5t-45.5 16zM499 140q-45 -58 -98.5 -92.5t-96 -45t-87 -9t-65.5 7t-37 11.5
q-28 7 -46.5 34t-22 59t12.5 64t50 48q57 18 114 20t110.5 -11t93 -28.5t85.5 -38.5z" />
    <glyph glyph-name="jizhang" unicode="&#xe60f;" 
d="M742 788h-416q-51 0 -80.5 -6t-47.5 -25t-24 -47t-6 -77l4 -1h-3q-44 0 -44 -62.5t44 -62.5l-1 1v-88l1 6q-44 0 -44 -63t44 -63l-1 6v-96l1 9q-44 0 -44 -63q0 -16 1 -26.5t4 -22t11 -17t20 -5.5h7q0 -43 6 -66.5t24 -38.5t47 -19.5t81 -4.5h416q88 0 121 28t33 108v541
q0 51 -7 80.5t-26 46.5t-46 22.5t-75 5.5zM677 324q34 0 35 -35q2 -38 -39 -37l-93 2v-79q0 -27 -44 -27q-43 0 -43 27v79h-97q-35 0 -35 35v8v-2q2 29 35 29h97v52h-97q-15 0 -24 8.5t-9 33.5q0 17 10 27t27 10h73l-50 47l-23 23q-11 12 -11.5 28t9.5 28l0.5 1t1.5 2
q12 12 29 12t29 -12l3 -3l75 -76l78 79q12 12 29.5 12t29.5 -12t12 -29.5t-12 -29.5l-71 -70h73q18 0 27.5 -10t9.5 -27q0 -18 -9.5 -30t-25.5 -12h-97v-52h97z" />
    <glyph glyph-name="fuwuchuangb" unicode="&#xe665;" 
d="M631 225l-125 66l-123 -69l22 143l-101 99l138 22l61 130l63 -129l139 -19l-99 -101zM835 791h-651q-19 0 -32 -17t-13 -39v-728q0 -25 10.5 -38.5t26.5 -15t29.5 0.5t24.5 7l238 108q18 8 43.5 8.5t43.5 -7.5l253 -113q24 -10 51 2.5t27 54.5v721q0 21 -16 38.5
t-35 17.5z" />
    <glyph glyph-name="chaoshi" unicode="&#xe603;" 
d="M311 26q-24 0 -41 -17t-17 -41t17 -41t41 -17t41 17t17 41t-17 41t-41 17zM868 26q-24 0 -41 -17t-17 -41t17 -41t41 -17t41 17t17 41t-17 41t-41 17zM882 58q13 0 22.5 9.5t9.5 22.5t-9.5 22.5t-22.5 9.5h-586v64h3h522q26 0 44 18t18 44l45 279q0 26 -18.5 44.5
t-44.5 18.5h-566h-3v111q0 13 -9 22.5t-23 9.5l-2 -1h-1h-162q-11 0 -18.5 -7.5t-7.5 -18t7.5 -18.5t18.5 -8h134v-585v-0.5v-0.5l-1 -4q0 -13 9.5 -22.5t22.5 -9.5h618v0z" />
    <glyph glyph-name="ticket2" unicode="&#xe626;" 
d="M901 652l-31 29q-6 2 -16 4t-35.5 -2.5t-42.5 -22.5l-153 -155l-429 62l-54 -49l319 -185l-117 -114l-195 -13l-38 -14l200 -111l107 -201l15 38l12 187q329 335 458 466q14 17 14 35t-7 32l-7 14v0zM575 216l159 -298l42 48l-43 394zM575 216z" />
    <glyph glyph-name="wenjubangongwubeijing01" unicode="&#xe66f;" 
d="M869 709h-640q-37 0 -63.5 -26t-26.5 -63v-52q0 -12 8.5 -20t20 -8t20 8t8.5 20v52q0 14 9.5 23.5t23.5 9.5h640q14 0 23.5 -9.5t9.5 -23.5v-640q0 -13 -9.5 -23t-23.5 -10h-640q-14 0 -23.5 10t-9.5 23v78q0 12 -8.5 20t-20 8t-20 -8t-8.5 -20v-78q0 -37 26.5 -63
t63.5 -26h640q37 0 63.5 26t26.5 63v640q0 37 -26.5 63t-63.5 26zM139 410v-191q0 -11 8.5 -19.5t20 -8.5t20 8.5t8.5 19.5v191q0 11 -8.5 19.5t-20 8.5t-20 -8.5t-8.5 -19.5zM93 461h148q11 0 19.5 8t8.5 19.5t-8.5 20t-19.5 8.5h-148q-11 0 -19.5 -8.5t-8.5 -20t8.5 -19.5
t19.5 -8zM269 140q0 12 -8.5 20t-19.5 8h-148q-11 0 -19.5 -8t-8.5 -20t8.5 -20t19.5 -8h148q11 0 19.5 8t8.5 20zM370 272h336q12 0 20 8t8 20t-8 20t-20 8h-336q-12 0 -20 -8t-8 -20t8 -20t20 -8zM370 69h423q11 0 19.5 8.5t8.5 20t-8.5 20t-19.5 8.5h-423q-12 0 -20 -8.5
t-8 -20t8 -20t20 -8.5zM370 474h423q11 0 19.5 8.5t8.5 20t-8.5 20t-19.5 8.5h-423q-12 0 -20 -8.5t-8 -20t8 -20t20 -8.5z" />
    <glyph glyph-name="baojian" unicode="&#xe607;" 
d="M314 -154q-49 0 -95.5 20t-83.5 57q-68 68 -76 160t50 150l470 470q51 51 131 51q49 0 95.5 -20t83.5 -57q68 -68 76 -160t-50 -150l-470 -470q-51 -51 -131 -51zM710 711q-63 0 -101 -38l-470 -470q-44 -44 -38 -117q7 -76 64 -133q64 -64 149 -64q63 0 101 38l470 470
q44 44 38 117q-7 75 -64 133q-65 64 -149 64zM391 485l306 -306l-31 -31l-306 306zM604 530l39 -39l-30 -30l-39 39zM743 575l39 -39l-30 -30l-39 39zM704 433l39 -39l-30 -31l-39 39z" />
    <glyph glyph-name="cengjingyoulan" unicode="&#xe60e;" 
d="M512 -181q-98 0 -187 38t-153.5 102.5t-102.5 153.5t-38 187t38 187t102.5 153.5t153.5 102.5t187 38q114 0 216.5 -52t170.5 -143l-34 -26q-62 84 -155.5 131t-197.5 47q-89 0 -170 -34.5t-140 -93.5t-93.5 -140t-34.5 -170t34.5 -170t93.5 -140t140 -93.5t170 -34.5
t170 34.5t140 93.5t93.5 140t34.5 170h43q0 -98 -38 -187t-102.5 -153.5t-153.5 -102.5t-187 -38zM485 332h310v-43h-310v43zM484 532h43v-242h-43v242zM874 743h43v-198h-43v198zM719 587h197v-43h-197v43z" />
    <glyph glyph-name="gouwuqia" unicode="&#xe60b;" 
d="M825 -60h-626q-64 0 -101.5 7.5t-57.5 28.5q-22 22 -26.5 55.5t-3.5 107.5v275v47q-1 51 0 74t8 48.5t22 40.5q20 21 57 28.5t102 7.5h626q64 0 101.5 -7.5t57.5 -28.5q22 -22 26.5 -55.5t3.5 -107.5v-275v-47q1 -51 0 -74t-8 -48.5t-22 -40.5q-20 -21 -57 -28.5
t-102 -7.5zM199 617q-106 0 -129 -23q-13 -13 -15.5 -41t-2.5 -91l1 -276l-1 -48q0 -44 0.5 -63.5t4.5 -39.5t13 -29q23 -23 129 -23h626q106 0 129 23q13 13 15.5 41t2.5 91l-1 276l1 48q0 44 -0.5 63.5t-4.5 39.5t-13 29q-23 23 -129 23h-626zM51 488h929v-114h-929v114z
M157 300h43v-152h-43v152zM253 300h43v-152h-43v152zM349 300h43v-152h-43v152z" />
    <glyph glyph-name="jinkoushipin" unicode="&#xe60c;" 
d="M512 290zM532 485q-66 0 -112.5 46.5t-46.5 112.5t46.5 113t112.5 47t113 -47t47 -113t-47 -112.5t-113 -46.5zM532.5 761q-48.5 0 -83 -34t-34.5 -82.5t34.5 -83t83 -34.5t82.5 34.5t34 83t-34 82.5t-82.5 34zM513 402h-43q0 48 -34 82.5t-82.5 34.5t-82.5 -34.5
t-34 -82.5h-43q0 66 47 112.5t112.5 46.5t112.5 -46.5t47 -112.5zM698 308h-42h-35t-28.5 1t-25.5 3.5t-19.5 7t-16.5 11.5t-10.5 16.5t-7.5 23t-2 31.5q0 66 47 112.5t113 46.5t112.5 -46.5t46.5 -112.5q0 -28 -8 -46.5t-18 -28t-31 -14t-34.5 -5t-40.5 -0.5zM670.5 519
q-48.5 0 -82.5 -34.5t-34 -82.5v-21t3.5 -14t8.5 -9.5t18.5 -4t28 -3t43.5 -0.5h42q59 0 74 8.5t15 43.5q0 48 -34 82.5t-82.5 34.5zM380 309h-41h-34t-29 1t-26 3.5t-19.5 7t-16.5 11.5t-10.5 16.5t-7.5 23t-2 31.5q0 66 47 113t112.5 47t112.5 -47t47 -113q0 -27 -8 -46
t-18.5 -28.5t-31.5 -14t-34.5 -5t-40.5 -0.5zM353.5 520q-48.5 0 -82.5 -34.5t-34 -82.5v-21t3.5 -13.5t8.5 -9.5t18.5 -4.5t28.5 -3t43 -0.5h41q60 0 75 9t15 43q0 48 -34 82.5t-82.5 34.5zM514 -204l-316 555l627 -1zM272 309l242 -426l238 424z" />
    <glyph glyph-name="tv" unicode="&#xe689;" 
d="M210 -68q-14 0 -24.5 10t-10.5 24t10.5 24t24.5 10h602q14 0 24 -10t10 -24t-10 -24t-24 -10h-602v0zM100 675v0h1h820q14 0 24 -10t10 -24v-1v-545q0 -14 -10 -24t-24 -10h-1h-820q-14 0 -24 10t-10 24v1v545q0 14 10 24t24 10v0zM887 607v0h-753v-477h753v477v0z" />
    <glyph glyph-name="chengshifuwufuwu" unicode="&#xe660;" horiz-adv-x="1025" 
d="M980 -37q-48 27 -120 47v625q0 29 -18.5 49t-47.5 20h-405q-29 0 -48 -20t-19 -49v-592q-8 -1 -21 -3v2.5v1.5q0 48 -30.5 81.5t-74.5 33.5t-75 -33.5t-31 -81.5q0 -25 11 -49q-41 -14 -71 -31q-21 -20 -27 -35t1 -21t17 -9.5t20 -3.5h10h901v0q63 -4 72 16q7 17 -44 52z
M634 547q0 15 10 25t25 10h69q15 0 25 -10t10 -25v-95q0 -15 -10 -25t-25 -10h-60q-16 0 -30 10.5t-14 24.5v95zM634 295q0 15 10 25t25 10h69q15 0 25 -10t10 -25v-96q0 -14 -10 -24.5t-25 -10.5h-60q-16 0 -30 10.5t-14 24.5v96zM409 547q0 15 10 25t24 10h70
q14 0 24.5 -10t10.5 -25v-95q0 -15 -10.5 -25t-24.5 -10h-61q-15 0 -29 10.5t-14 24.5v95zM409 295q0 15 10 25t24 10h70q14 0 24.5 -10t10.5 -25v-96q0 -14 -10.5 -24.5t-24.5 -10.5h-61q-15 0 -29 10.5t-14 24.5v96z" />
    <glyph glyph-name="nanzhuang" unicode="&#xe629;" 
d="M905 468l-161 60v2l-38 12h-419v0v0l-12 -4v0l-28 -8v-2l-162 -60l49 -174l113 38v-373h497v374l124 -39zM612 501q-7 -35 -41.5 -58t-79.5 -23t-79.5 23t-41.5 58h242zM840 344l-96 33v0l-41 12v-2v0v-387h-415v389l-41 -11v0l-1 -1v0l-88 -31l-28 93l116 48v0l41 14v0
h1h40q7 -49 49 -83q47 -39 114 -39t114 39q42 34 49 83h45h4v-1l41 -14v1v0v0l111 -48z" />
    <glyph glyph-name="jiayou" unicode="&#xe604;" 
d="M661 -54v410h28q11 0 19.5 -8t8.5 -20v-261q0 -50 35.5 -85.5t85.5 -35.5t85.5 35.5t35.5 85.5v501q0 40 -28 67l-99 98q-14 14 -32.5 14t-32 -13.5t-13.5 -32.5t13 -32l64 -65l-47 -49q-12 -12 -12 -28.5t12 -28.5q11 -12 28 -12h54v-419q0 -11 -8.5 -19.5t-20 -8.5
t-19.5 8.5t-8 19.5v261q0 50 -35.5 85.5t-85.5 35.5h-28v223q0 31 -22 53t-53 22h-390q-31 0 -53 -22t-22 -53v-726h-9q-19 0 -33 -13.5t-14 -32.5t14 -33t33 -14h558q19 0 33 14t14 33t-14 32.5t-33 13.5h-9zM255 654h272q17 0 29 -12t12 -29v-198q0 -17 -12 -29t-29 -12
h-272q-17 0 -29 12t-12 29v198q0 17 12 29t29 12z" />
    <glyph glyph-name="tianmao" unicode="&#xe68f;" 
d="M908 590v-111v-8q-1 -33 -14.5 -47.5t-39.5 -17.5q-4 -1 -16 -1h-167h-30q-58 -9 -58 -56v-51q6 -5 119 -63q6 -3 4 -9l-1 -1q-2 -3 -9 -3l-60 10l-53 10v-396q0 -7 -7 -7q-6 0 -7 5q-1 1 -1 2l-18 58q-4 10 -9 24q-4 14 -8.5 29.5t-5.5 18.5q-1 5 -7 5h-18q-6 0 -8 -5
q-4 -25 -22 -72l-18 -58v-1q-1 -6 -7 -6h-1q-8 0 -8 7v396l-53 -10l-59 -10q-7 0 -10 3v1q-1 6 3 9q113 57 119 62v52q0 47 -56 56h-29h-167q-12 0 -15 1q-25 3 -39.5 17.5t-15.5 47.5v8v111v60v1v3q0 78 34 102q21 10 40.5 -0.5t27.5 -21.5q20 -23 27 -31t26.5 -27
t34 -26.5t36.5 -15t45 -7.5h20h105h105h20q28 0 52 8t45 25.5t33.5 29.5t32.5 36q5 5 6 8q3 3 9 8t16 11.5t20 7t23 -4.5q34 -22 34 -102v-3v-1v-60v0zM183 536q0 -35 23 -59.5t58 -29.5q-22 22 -22 87q0 36 7.5 61.5t18.5 26.5q-34 0 -59.5 -26t-25.5 -60v0zM277 447
q35 5 58.5 29t23.5 59.5t-25 61t-61 25.5q11 -2 18.5 -27t7.5 -61q0 -32 -5.5 -55.5t-16.5 -31.5v0zM496 553q-6 0 -9 -3.5t-1 -7.5l10 -13q2 -3 4.5 -5.5t4.5 -6t3 -4.5q0 -1 4 -1t6 1l10 16l10 13q4 4 1 7.5t-11 3.5h-32v0zM606 446q-6 -6 -18.5 -9.5t-30 -0.5t-28.5 17
q-2 3 -4 12t-3 11q-1 4 -1 15h-18q0 -6 -2 -15q-1 -13 -7 -23q-9 -16 -26.5 -18.5t-30.5 2t-19 9.5v-10q6 -9 23 -13.5t36.5 1t27.5 22.5q0 1 2 3t5 2t6 -2q0 -2 1 -3q8 -16 27.5 -21.5t37 -1.5t22.5 13v10v0zM665 536q0 -34 24 -59t57 -30q-21 21 -21 87q0 37 7.5 61.5
t19.5 26.5q-35 0 -61 -26t-26 -60v0zM760 447q36 5 58.5 29t22.5 59.5t-24.5 61t-61.5 25.5q12 -2 19.5 -27t7.5 -61q0 -32 -5.5 -55.5t-16.5 -31.5v0z" />
    <glyph glyph-name="youhuiquan" unicode="&#xe65f;" 
d="M513 895q-104 0 -198.5 -40.5t-163 -109t-109 -163t-40.5 -198.5t40.5 -198.5t109 -163t163 -109t198.5 -40.5t198.5 40.5t163 109t109 163t40.5 198.5t-40.5 198.5t-109 163t-163 109t-198.5 40.5v0v0zM513 -70q-92 0 -176.5 36t-145 96.5t-96.5 145t-36 176.5t36 176
t96.5 145t145 97t176.5 36t176 -36t145 -97t97 -145t36 -176t-36 -176.5t-97 -145t-145 -96.5t-176 -36v0v0zM667 339q56 4 47 -50q-4 -99 -16 -129q-15 -47 -79 -49q-72 0 -144 43q-20 13 -11 29q13 18 34 7q135 -64 160 -9q7 20 13 90q1 13 -5 20t-20 7h-144
q-47 -147 -214 -178q-25 -5 -32 16q-2 20 20 27q145 31 176 135h-99q-27 5 -18 29q-24 -10 -56 -27q-23 -9 -34 5q-9 20 9 31q86 34 128 73h-119q-20 2 -20 22t20 20h158q9 12 25 46q4 4 4 6h-156q-18 0 -18 20.5t18 20.5h73q-18 45 -34 70q-12 18 9 32q18 9 31 -9
q19 -30 34 -73q5 -11 0 -20h59q16 68 18 95q4 20 27 18q20 -5 18 -27q-11 -60 -18 -86h75q2 5 11 25q22 47 27 61q9 22 29 16q18 -10 12 -32q-9 -25 -30 -70h106q18 0 18 -20.5t-18 -20.5h-243q-12 -27 -25 -52h291q18 0 20 -20q0 -20 -18 -22h-101q33 -32 103 -61
q21 -12 14 -32q-9 -16 -32 -7q-95 48 -144 100h-163q-42 -45 -90 -70h314v0z" />
    <glyph glyph-name="yijianfankui" unicode="&#xe695;" 
d="M892 481q-1 8 -7 13.5t-14.5 5.5t-14.5 -5.5t-7 -13.5v0v-373q0 -26 -18 -44t-44 -18h-552q-25 0 -43.5 18t-18.5 44v556q0 26 18.5 44t43.5 18h371v0q8 0 14.5 6.5t6.5 15t-6.5 15t-14.5 6.5v0h-371q-43 0 -74 -31t-31 -74v-556q0 -44 31 -74.5t74 -30.5h552
q43 0 74 30.5t31 74.5v373v0zM338 256v-1q-4 -20 7 -31q7 -7 20 -7q5 0 11 1l117 31l374 374q21 20 21 49t-21 49l-26 26q-20 20 -48.5 20t-49.5 -20l-374 -374zM404 337l54 -54l-73 -18zM430 372l292 293l63 -63l-292 -293zM811 716l26 -25q8 -8 8 -19t-8 -19l-22 -21
l-63 63l22 21q7 8 18 8t19 -8z" />
    <glyph glyph-name="icon1" unicode="&#xe611;" 
d="M711 681q20 0 33.5 -13.5t13.5 -32.5v-446l4 11l-101 -103l11 4h-366q-19 0 -32.5 13.5t-13.5 32.5v549l-16 -15h467zM228 712v-565q0 -31 23 -53.5t55 -22.5h373l110 112v6v446q0 32 -23 54.5t-55 22.5h-483zM649 269q-19 0 -33 -13.5t-14 -32.5v-91q0 -6 4.5 -10.5
t11 -4.5t11 4.5t4.5 10.5v91q0 7 4.5 11.5t11.5 4.5h70q6 0 11 4.5t5 10.5t-5 10.5t-11 4.5h-70zM673 574q7 0 11.5 4.5t4.5 11t-4.5 11t-11.5 4.5h-320q-6 0 -11 -4.5t-5 -11t5 -11t11 -4.5h320zM673 483q7 0 11.5 4.5t4.5 10.5t-4.5 10.5t-11.5 4.5h-320q-6 0 -11 -4.5
t-5 -10.5t5 -10.5t11 -4.5h320zM673 376q7 0 11.5 4.5t4.5 10.5t-4.5 10.5t-11.5 4.5h-320q-6 0 -11 -4.5t-5 -10.5t5 -10.5t11 -4.5h320z" />
    <glyph glyph-name="jiubei" unicode="&#xe760;" 
d="M849 701q6 -24 -2.5 -37.5t-25.5 -20.5q-4 1 -9 3t-12 4t-16 4q-6 1 -11.5 1h-10.5h-11q-5 5 -10 10.5t-7 20.5q-2 25 12 39t36 17q23 3 43 -8.5t24 -32.5v0zM789 733q1 5 2 11q2 11 -3 28q-5 10 -13 13.5t-17 3.5q-10 1 -11.5 9t10.5 12q14 3 30.5 -3.5t25.5 -27.5
q3 -10 4 -20.5t0 -19t-2.5 -14t-2.5 -6.5q-2 -2 -5.5 0.5t-7.5 5.5q-5 3 -10 8v0zM754 629q44 0 58 -12t11 -29t-18 -36.5t-31 -33.5q-5 -4 -17.5 -16.5t-31.5 -30.5t-41 -39t-45 -44q-52 -50 -116 -113v-235q0 -9 10 -19.5t24.5 -17t29 -13.5t14.5 -20q0 -10 -13.5 -11
t-23.5 -1h-140q-16 0 -31 1.5t-15 11.5q0 7 5.5 12.5t13.5 9t15 6t11 4.5q37 18 35 37v12v27v37v43v115q-61 58 -113 110q-22 22 -45.5 44.5t-44.5 43t-38.5 37.5t-28.5 27q-19 17 -26 34t-3 30.5t18 21t36 7.5h44h87h109h116h106h79zM620 491h-43l92 85h-194h-72h-65h-46
h-19q-18 2 -26 -7.5t8 -22.5q12 -11 26 -24.5t27 -26.5q15 -14 30 -29h312q21 17 37 32q15 13 29 25t20 17q18 16 10.5 27t-31.5 9z" />
    <glyph glyph-name="icon" unicode="&#xe60a;" 
d="M805 891h-586q-52 0 -88.5 -37t-36.5 -90v-760q0 -53 36.5 -90t88.5 -37h586q52 0 88.5 37t36.5 90v760q0 53 -36.5 90t-88.5 37zM847 4q0 -18 -12.5 -30.5t-29.5 -12.5h-586q-17 0 -29.5 12.5t-12.5 30.5v760q0 18 12.5 30.5t29.5 12.5h586q17 0 29.5 -12.5t12.5 -30.5
v-760zM679 173h-334q-18 0 -30 -12.5t-12 -30t12 -30t30 -12.5h334q18 0 30 12.5t12 30t-12 30t-30 12.5zM679 342h-334q-18 0 -30 -12.5t-12 -30t12 -30t30 -12.5h334q18 0 30 12.5t12 30t-12 30t-30 12.5zM679 511h-334q-18 0 -30 -12.5t-12 -30t12 -30t30 -12.5h334
q18 0 30 12.5t12 30t-12 30t-30 12.5zM345 595h167q17 0 29.5 12.5t12.5 30t-12.5 30t-29.5 12.5h-167q-18 0 -30 -12.5t-12 -30t12 -30t30 -12.5z" />
    <glyph glyph-name="fukuan" unicode="&#xe610;" 
d="M950 750h-877q-30 0 -51.5 -21.5t-21.5 -51.5v-585q0 -30 21.5 -51.5t51.5 -21.5h877q31 0 52 21.5t21 51.5v585q0 30 -21 51.5t-52 21.5zM272 155h-71v478h71v-478zM360 155h-47v478h47v-478zM533 155h-103v478h103v-478zM645 155h-69v478h69v-478zM807 155h-43v478h43
v-478z" />
    <glyph glyph-name="wodekefu" unicode="&#xeb89;" 
d="M659 253v1q-21 -32 -60.5 -50.5t-85.5 -17t-83.5 22.5t-56.5 55l-1 -1q-2 -60 38.5 -103.5t100 -45.5t103 39t45.5 100zM943 529q-31 143 -143.5 239t-262.5 102q-111 3 -208 -46t-159.5 -138t-74.5 -198q-39 -5 -66 -34.5t-29 -69.5q-1 -45 29 -77.5t75 -34.5q10 0 20 2
q47 -114 147 -187q-53 106 -49 235q1 14 4.5 31.5t12 40t26.5 42t43 28.5q36 8 60 5t75 -9.5t91 -4.5q68 3 118 50t56 116q52 -57 80.5 -141t25.5 -178q-5 -129 -65 -231q67 42 115.5 106t71.5 141q22 4 41 17q-33 -145 -143.5 -244.5t-257.5 -116.5q-5 21 -21 35t-38 15
q-26 1 -45 -17t-20 -44t16.5 -45t43.5 -20q20 -1 36.5 10t23.5 29q179 18 304 145t145 319q3 10 3 19q1 39 -22 69.5t-59 39.5z" />
    <glyph glyph-name="qiaquan" unicode="&#xe67f;" 
d="M516 277q-57 0 -95 43h-421v-256q0 -27 18.5 -45.5t45.5 -18.5h896q27 0 45.5 18.5t18.5 45.5v256h-413q-38 -43 -95 -43zM992 576h-960q-13 0 -22.5 -9.5t-9.5 -22.5v-160h453l10 -14q18 -27 53 -27t53 27l10 14h445v160q0 13 -9.5 22.5t-22.5 9.5zM960 832h-896
q-27 0 -45.5 -18.5t-18.5 -45.5v-134q17 6 32 6h960q15 0 32 -6v134q0 27 -18.5 45.5t-45.5 18.5z" />
    <glyph glyph-name="shopping-cart-empty" unicode="&#xe653;" 
d="M779 151h-336q-17 0 -23 17l-182 537h-151q-10 0 -17 7.5t-7 17.5t7 17.5t17 7.5h169q18 0 23 -17l64 -187h588q14 0 21 -11.5t2 -23.5l-152 -350q-7 -15 -23 -15zM461 201h302l131 300h-535zM512 57q0 -18 -13 -31t-31 -13t-30.5 13t-12.5 31t12.5 31t30.5 13t31 -13
t13 -31zM779 57q0 -18 -13 -31t-31 -13t-30.5 13t-12.5 31t12.5 31t30.5 13t31 -13t13 -31z" />
    <glyph glyph-name="qua-copy" unicode="&#xe6f2;" 
d="M584 716q119 -6 176 -14q43 -5 93 -16t64 -17q8 -4 12.5 -11t5.5 -12l1 -4v-32l-351 -1v-166q129 -2 188 -10q45 -5 102.5 -16t72.5 -17q13 -5 18.5 -15.5t5.5 -19.5v-31h-408q-16 -22 -100 -106q-37 -38 -67.5 -67.5t-42.5 -40.5l-12 -11q-47 -43 -55 -58
q-17 -36 29 -47l170.5 0.5t201.5 0.5h74q3 0 6.5 0.5t13.5 4t18 9.5t14.5 19t6.5 30q1 19 -10.5 32.5t-22.5 16.5l-11 4q-2 1 -5.5 1.5t-14.5 1.5t-20 -2q-24 -4 -29 -1q-7 5 -7 21q1 22 -12 39q-18 22 -51 23q-10 0 -21 -2t-17 -4l-6 -2q-2 -2 -4 -2l-5 2l-12 15q-2 3 0 6
l2 1.5t3.5 3.5t5 5l7 6t8.5 6.5t10.5 6.5t12 5.5t13 4.5t14 3t15.5 1q72 -2 95 -67q0 -1 1 -3q0 -5 6 -5q1 0 11.5 0.5t20.5 0.5t24 -1q11 -1 23 -4t32 -12t34.5 -22.5t26.5 -38.5t13 -57q-1 -65 -46 -103.5t-107 -39.5h-546q-1 2 -15.5 0t-37.5 3t-45 12.5t-38 27.5t-16 48
q0 29 15.5 56.5t29.5 41t16 13.5l231 224h-342v32q0 3 1 8t9 14.5t22 12.5q117 29 355 42v0v0v0v0v1v0v0v0v0v1v0v0v1v0v1v0v1v0v1v0v1v0v1v1v0v1v1v0v1v1v1v0v1v1v1v1v1v0v1v1v1v1v1v1v1v1v1v1v1v1v1v1v1v2v1v1v1v1v1v2v1v1v1v1v2v1v1v1v2v1v1v2v1v1v2v1v1v2v1v2v1v1v2v1v2
v1v2v1v2v1v2v1v2v1v2v1v2v1v2v1v2v2v1v2v1v2v2v1v2v2v1v2v2v1v2v2v1v2v2v2v1v2v2v2v1v2v2v2v2v1v2v2v2v2v9l-350 1v38q2 20 22 24q3 1 30.5 8t61.5 14t68 11l165 18v80q0 18 9 28l4.5 4.5t10.5 5.5q5 2 9 4l79 23q19 2 26 -4q12 -9 12 -23v-125z" />
    <glyph glyph-name="nvzhuang-copy" unicode="&#xe608;" 
d="M900 62q-29 47 -108 176t-121 199q14 30 41.5 87.5t40.5 84.5q9 19 -4 35q-35 45 -31 159q1 11 -7.5 19.5t-20.5 8.5h-102q-9 0 -17.5 -6t-10.5 -15q-10 -62 -45 -76q-26 -10 -42 14.5t-18 54.5q0 12 -8 20t-20 8h-97q-13 1 -23.5 -6t-10.5 -22q-5 -116 -34 -152
q-15 -19 -8 -35q14 -31 38.5 -89.5t36.5 -86.5q-106 -184 -187 -332q-3 -5 -9 -15.5t-8 -15t-5.5 -13t-4 -14.5t1 -14.5t6.5 -16.5q11 -22 33 -40t46 -28q49 -17 83.5 -6.5t67.5 48.5q16 14 30 14t33 -10.5t34.5 -23.5t34.5 -23t32 -10q29 0 76 31t62 36q9 3 21 -4.5t26 -22
t16 -16.5q30 -23 69 -16q32 6 64.5 30.5t49.5 54.5q8 14 -1 29v0zM493 676q43 -3 74.5 25t43.5 73h50q1 -95 36 -153q-11 -22 -35 -74t-37 -80h-238q-5 13 -16.5 36t-12.5 24q-8 19 -23 53.5t-21 46.5q32 51 38 147h50q9 -40 32 -68t59 -30zM801 18q-16 -11 -29.5 -11
t-20 4.5t-19.5 16.5t-22 19q-14 9 -29.5 13t-26.5 4t-28.5 -7.5t-25 -11.5t-27.5 -16t-26 -15q-1 -1 -8 -5.5t-9.5 -6t-10 -4t-9.5 0.5q-7 4 -14.5 9t-17.5 13t-13 11q-51 39 -99 30q-38 -8 -72 -48q-18 -20 -41.5 -18t-45 15.5t-35.5 33.5q24 43 65.5 116t76.5 134t67 114
h241q3 -6 26 -44q35 -58 98.5 -165.5t90.5 -151.5q-12 -16 -36 -30z" />
    <glyph glyph-name="zhipin" unicode="&#xe635;" 
d="M154.5 248q-37.5 0 -65.5 45.5t-41.5 113.5t-13.5 146.5t13.5 146.5t41.5 113.5t65.5 45.5t65 -45.5t41 -113.5t13.5 -146.5t-13.5 -146.5t-41 -113.5t-65 -45.5zM154 817q-12 0 -25.5 -19t-25 -52t-19 -84t-7.5 -108.5t7.5 -108.5t19 -84t25 -52t25.5 -19t25.5 19t25 52
t19 84t7.5 108.5t-7.5 108.5t-19 84t-25 52t-25.5 19zM870 248v42q12 0 25.5 19t25 52t19 84t7.5 108.5t-7.5 108.5t-19 84t-25 52t-25.5 19v42q38 0 65.5 -45.5t41 -113.5t13.5 -146.5t-13.5 -146.5t-41 -113.5t-65.5 -45.5zM155 290h723v-42h-723v42zM146 859h724v-42
h-724v42zM272 281v4v-4zM154 444q-11 0 -16.5 6t-9 28.5t-3.5 67t3.5 67t9 28.5t16.5 6q17 0 23 -19.5t6 -81.5t-6 -82t-23 -20zM34 522h43v-592h-43v592zM824 269h42v-339h-42v339zM133 -15h62v-43h-62v43zM248 -15h62v-43h-62v43zM363 -15h62v-43h-62v43zM478 -15h62v-43
h-62v43zM593 -15h62v-43h-62v43zM708 -15h62v-43h-62v43z" />
    <glyph glyph-name="naiping" unicode="&#xe64d;" 
d="M761 355v-385q0 -21 -14.5 -35.5t-35.5 -14.5h-392q-21 0 -35.5 14.5t-14.5 35.5v385q0 21 14.5 35.5t35.5 14.5h392q21 0 35.5 -14.5t14.5 -35.5zM317 456q-41 0 -70 -29t-29 -70v-386q0 -40 29 -69.5t70 -29.5h393q41 0 70 29.5t29 69.5v386q0 41 -29 70t-70 29h-393z
M269 58v50h265q10 0 17 -7.5t7 -17.5v0q0 -10 -7 -17.5t-17 -7.5h-265zM269 217v50h265q10 0 17.5 -7.5t7.5 -17.5v0q0 -10 -7.5 -17.5t-17.5 -7.5h-265zM761 611v-27q0 -20 -14.5 -34.5t-35.5 -14.5h-392q-21 0 -35.5 14.5t-14.5 34.5v27q0 21 14.5 35.5t35.5 14.5h392
q21 0 35.5 -14.5t14.5 -35.5zM317 712q-41 0 -70 -29t-29 -70v-27q0 -41 29 -70t70 -29h393q41 0 70 29t29 70v27q0 41 -29 70t-70 29h-393zM582 791v-79h-133v79q0 20 14.5 34.5t34.5 14.5h34q21 0 35.5 -14.5t14.5 -34.5zM496 891q-40 0 -69.5 -29t-29.5 -70v-80h232v80
q0 41 -29 70t-69 29h-35z" />
    <glyph glyph-name="gupiao-copy" unicode="&#xe63d;" 
d="M972 -110h-912q-16 0 -28.5 12.5t-12.5 29.5v258q0 32 13 45t30 -2l123 -97q40 -35 55 -17l142 172q35 43 55 26l122 -106q49 -41 65 -21l302 365q31 35 59 28t28 -50v-601q0 -17 -12.5 -29.5t-28.5 -12.5zM617 338q-17 -23 -46 -26q-28 -3 -50 15l-137 116l-138 -182
q-17 -23 -45 -26h-8q-24 0 -42 15l-121 98q-21 18 -24 45.5t15 49t45.5 24t48.5 -14.5l67 -55l138 183q17 23 45.5 26t50.5 -15l138 -116l179 223l-50 41q-27 22 -21.5 43t38.5 28l258 54q34 8 43 -6.5t-12 -41.5z" />
    <glyph glyph-name="geren" unicode="&#xe619;" horiz-adv-x="1025" 
d="M1018 -9q1 35 -22 66q-30 40 -93 78q-90 54 -217 93q-68 21 -69 56q-1 42 20 68q57 71 83 175q23 91 7 175q-17 95 -82 146q-59 48 -132 48q-28 0 -58 -8q-117 -29 -155 -156q-26 -84 -6 -183q11 -55 33 -93.5t63 -88.5q5 -6 6 -8q12 -33 -10 -75t-57 -54
q-57 -20 -105 -40q-96 -42 -153 -87q-27 -21 -43.5 -39.5t-23.5 -42.5q-3 -14 -4 -56q-1 -38 29 -62q6 -5 17.5 -13t20.5 -13l8 -5l161 1h709q3 2 8.5 6t18.5 16.5t23 24.5t17.5 29t5.5 32v10zM1010 717h-179q-5 0 -8.5 -4t-3.5 -9v-26q0 -5 3.5 -8.5t8.5 -3.5h179
q6 0 9.5 3.5t3.5 8.5v26q0 5 -3.5 9t-9.5 4zM1010 563h-179q-5 0 -8.5 -3.5t-3.5 -8.5v-26q0 -5 3.5 -9t8.5 -4h179q6 0 9.5 4t3.5 9v26q0 5 -3.5 8.5t-9.5 3.5zM1010 410h-230q-5 0 -9 -4t-4 -9v-26q0 -5 4 -8.5t9 -3.5h230q6 0 9.5 3.5t3.5 8.5v26q0 5 -3.5 9t-9.5 4z
M1010 256h-102q-5 0 -9 -3.5t-4 -9.5v-25q0 -6 4 -9.5t9 -3.5h102q6 0 9.5 3.5t3.5 9.5v25q0 6 -3.5 9.5t-9.5 3.5z" />
    <glyph glyph-name="wodekuaidi" unicode="&#xe62b;" 
d="M325 270l692 -3l2 462h-693zM52 379q9 34 16 58t15 43t13.5 30t15 19t16 10.5t20 3.5t23.5 0t30 -2.5t36 -1.5l-2 -162zM7 306q0 -8 -1 -37.5t-1 -48.5t3.5 -42t11.5 -36q28 2 43 14t18.5 27.5t12.5 32t24.5 27.5t54.5 15t103 -6l-2 321l-188 5q-79 -173 -79 -272v0v0z
M324 141l467 -4l32 86l-498 2zM230 86q-31 0 -52 9t-25.5 21.5t0 25t26 21t51.5 7.5q16 -32 15.5 -42t-15.5 -42v0zM291 85l3 86q-42 38 -79.5 49t-61 -2t-36.5 -37t-13 -53q0 -55 31.5 -78.5t75 -12t80.5 47.5v0zM879 114q-8 32 11.5 49t44.5 10.5t31 -32.5
q7 -29 -12.5 -45t-44 -10.5t-30.5 28.5v0zM998 53q20 58 17 94t-22.5 54t-45.5 21t-51.5 -4.5t-39.5 -21.5q-15 -15 -23 -40t-4.5 -51t21.5 -45t54 -22.5t94 15.5v0z" />
    <glyph glyph-name="pengyou" unicode="&#xe644;" 
d="M401 -64q-336 0 -336 162q0 37 34 67.5t84.5 49t111.5 28.5v6q-31 24 -51.5 57.5t-30 73t-13 74t-3.5 76.5q0 99 55 155t153 56h7q98 0 153 -56t55 -155q0 -42 -3.5 -76.5t-13 -74t-30 -73t-51.5 -57.5v-6q61 -10 111.5 -28.5t84.5 -49t34 -67.5q0 -24 -8.5 -45.5
t-32 -43.5t-61 -37.5t-101.5 -25.5t-148 -10zM405 677q-144 0 -144 -147q0 -39 3 -70t11 -64.5t25.5 -60t43.5 -42.5q15 -10 15 -27v-52q0 -12 -8.5 -21t-20.5 -10q-84 -9 -142.5 -36.5t-58.5 -48.5q0 -98 272 -98q91 0 155.5 11.5t98 33.5t33.5 53q0 21 -58.5 48.5
t-142.5 36.5q-13 1 -21 10t-8 21v52q0 17 15 27q26 16 43.5 42.5t25.5 60t11 64.5t3 70q0 73 -36 110t-108 37h-7v0zM899 132q-13 0 -22.5 9.5t-9.5 22.5t-26.5 33t-73.5 38.5t-97 23.5q-12 2 -20.5 11t-8.5 21v67q0 17 15 27q29 18 49 48t28.5 63.5t11.5 58t3 47.5
q0 40 -12 67.5t-33.5 41.5t-43.5 19.5t-48 5.5q-14 0 -23 9.5t-9 22.5t9 22.5t23 9.5q93 0 147 -53t54 -145q0 -27 -3.5 -55.5t-13.5 -67.5t-33 -75.5t-57 -62.5v-22q54 -10 104.5 -31.5t86 -54.5t35.5 -69q0 -13 -9.5 -22.5t-22.5 -9.5z" />
    <glyph glyph-name="xiangbao" unicode="&#xe832;" 
d="M957 33l-61 509q-5 29 -28 49t-53 20h-81v0q0 94 -64.5 158t-159 64t-159 -64t-64.5 -158v0h-81q-30 0 -53.5 -20t-27.5 -49l-61 -509q-6 -41 19 -70q22 -26 56 -26h742q35 0 57 26q25 29 19 70v0zM343 611q0 70 48.5 118t119 48t119 -48t48.5 -118v0h-336h1v0zM206 555
h609q9 0 16.5 -6t8.5 -14l13 -106l-343 -115l-342 115l13 105q1 9 8.5 15t16.5 6v0zM896 0q-6 -7 -15 -7h-742q-8 0 -14 7q-8 9 -6 26l42 347l341 -115q4 -1 8.5 -1t8.5 1l341 115l42 -347q2 -17 -6 -26v0zM454 414h112q12 0 20 8t8 19.5t-8 20t-20 8.5h-112
q-11 0 -19.5 -8.5t-8.5 -20t8.5 -19.5t19.5 -8v0z" />
    <glyph glyph-name="meizhuangyongpindianji" unicode="&#xe6ef;" 
d="M660 597v213q0 9 -13 17q-11 6 -25 5q-62 -6 -139 -32q-30 -10 -60 -27t-45 -30l-16 -12v-65v-69h298zM660 547v1h-298v-1q-24 0 -35.5 -3t-13 -7t-1.5 -11v-110v-22v-435q0 -10 6.5 -16t18.5 -6h349q24 0 24 22v435v22v110q0 10 -12.5 15.5t-24.5 5.5h-13zM664 335h-306
v49h306v-49z" />
    <glyph glyph-name="world" unicode="&#xe609;" 
d="M1012 496q-10 43 -28 87q-59 140 -187 226.5t-285 86.5q-139 0 -257 -68.5t-186.5 -186.5t-68.5 -257t68.5 -257t186.5 -186.5t257 -68.5t257 68.5t186.5 186.5t68.5 257q0 57 -12 112zM95 384q0 77 27 148q6 -3 22 -9.5t23 -13t7 -17.5q0 -25 0.5 -41.5t3 -39t8 -36.5
t14 -27.5t23 -20.5t33.5 -7q3 0 13 -5t26 -21t25 -38q3 -8 12 -8t25 4t27 4q7 0 7 -6.5t-3.5 -27.5t-3.5 -41q0 -15 12 -33.5t29 -35t34.5 -31t29.5 -23l12 -8.5q-1 -48 4 -83q-112 2 -206.5 58t-149 151.5t-54.5 207.5zM613 -21q11 44 15.5 60.5t16 37.5t27.5 34
q23 22 22 40.5t-18 31t-36 9.5q-10 -1 -14.5 4t-5.5 12t-5 13.5t-13 7.5q-14 1 -47.5 31.5t-51.5 38.5q-1 0 -27 17t-45 17q-7 1 -17 -1t-18.5 -4.5t-16 -4.5t-12 -0.5t-4.5 6.5q0 26 -1.5 49.5t-3.5 44.5l-2 21l-2 6q0 2 2 1q11 -3 28 -3q10 0 15.5 20t15.5 20q8 1 40 -6.5
t39 -3.5q2 2 9 -9q4 -6 13 -21q32 -56 45 -57q15 -1 15 57q0 5 -2 19.5t-2 26t4 18.5q9 16 21.5 36.5t20.5 34t15 26t10 19.5t2.5 9.5t-11 4t-27 0.5t-29.5 -6q-5 -1 -4.5 -10t-6.5 -11q-49 -10 -77 11q-17 13 -7 27q6 9 26.5 14t37.5 14.5t19 30.5q4 34 8 84
q111 -16 198 -86t128 -173q-167 -122 -59 -217q30 -26 63 -78q-35 -97 -112.5 -167t-178.5 -96v0z" />
    <glyph glyph-name="level1" unicode="&#xe62e;" horiz-adv-x="1265" 
d="M1138.5 640q-52.5 0 -89.5 -37.5t-37 -90.5q0 -25 9 -48l-199 -80l-133 270q32 15 51 46t19 68q0 53 -37 90.5t-89.5 37.5t-89.5 -37.5t-37 -90.5q0 -37 19 -68t51 -46l-133 -270l-199 80q9 23 9 48q0 53 -37 90.5t-89.5 37.5t-89.5 -37.5t-37 -90.5t37 -90.5t89 -37.5
q12 0 22 2l67 -405q5 -47 40.5 -78t79.5 -31h588q48 0 82.5 30t44.5 79l67 405q10 -2 21 -2q53 0 90 37.5t37 90.5t-37 90.5t-89.5 37.5zM734 20h-205v38h80v268l-82 -24v41l127 36v-321h80v-38z" />
    <glyph glyph-name="wodeyue" unicode="&#xe6a0;" horiz-adv-x="1264" 
d="M789 894q135 -75 216 -209t81 -294t-81 -294.5t-216 -209.5q97 6 185 48.5t151.5 109t101 157t37.5 189.5t-37.5 189t-101 157t-151.5 109t-185 48zM1015 391q0 102 -40 195.5t-108 161.5t-162 108t-197 40t-197 -40t-161.5 -108t-107.5 -161.5t-40 -196t40 -196
t107.5 -161t161.5 -107.5t197 -40t197 40t162 107.5t108 161t40 196.5v0zM717 302q19 -1 30 -14t12 -31q-1 -19 -12 -32t-30 -14l-140 1v-77q-2 -62 -67 -62q-32 0 -50 15.5t-19 46.5v75h-141q-20 2 -30.5 16.5t-12.5 32.5q2 19 12.5 30.5t30.5 12.5h141v46l-141 1
q-20 1 -30.5 13.5t-12.5 31.5q2 18 12.5 29.5t30.5 12.5h105l-98 172q-8 10 -14 22q-5 12 -5 26v3q3 20 14 33t41 16q17 -1 31 -11.5t23 -22.5l111 -202l121 203q9 12 23 22q14 9 31 11q11 0 20 -2q9 -3 16 -8t11.5 -14t7.5 -25q0 -21 -15 -40l-113 -183h107q19 -1 30 -12.5
t12 -29.5q-1 -18 -12 -32q-12 -13 -31 -15l-139 -1v-44h140v0zM789 894q135 -75 216 -209t81 -294t-81 -294.5t-216 -209.5q97 6 185 48.5t151.5 109t101 157t37.5 189.5t-37.5 189t-101 157t-151.5 109t-185 48zM1015 391q0 102 -40 195.5t-108 161.5t-162 108t-197 40
t-197 -40t-161.5 -108t-107.5 -161.5t-40 -196t40 -196t107.5 -161t161.5 -107.5t197 -40t197 40t162 107.5t108 161t40 196.5v0zM717 302q19 -1 30 -14t12 -31q-1 -19 -12 -32t-30 -14l-140 1v-77q-2 -62 -67 -62q-32 0 -50 15.5t-19 46.5v75h-141q-20 2 -30.5 16.5
t-12.5 32.5q2 19 12.5 30.5t30.5 12.5h141v46l-141 1q-20 1 -30.5 13.5t-12.5 31.5q2 18 12.5 29.5t30.5 12.5h105l-98 172q-8 10 -14 22q-5 12 -5 26v3q3 20 14 33t41 16q17 -1 31 -11.5t23 -22.5l111 -202l121 203q9 12 23 22q14 9 31 11q11 0 20 -2q9 -3 16 -8t11.5 -14
t7.5 -25q0 -21 -15 -40l-113 -183h107q19 -1 30 -12.5t12 -29.5q-1 -18 -12 -32q-12 -13 -31 -15l-139 -1v-44h140v0z" />
    <glyph glyph-name="aixinjuanzeng" unicode="&#xe60d;" 
d="M771 612q-37 22 -76.5 23.5t-71.5 -13.5t-51.5 -28t-34.5 -27q-5 6 -9 13q-35 46 -84.5 66.5t-96.5 15t-88.5 -27.5t-63.5 -55q-25 -36 -33 -81t-1 -92.5t34.5 -95t70 -88t109 -72t149.5 -45.5q-2 4 0 5q1 1 5.5 2.5t6 2.5t3.5 4.5t4 4.5l16 4q-59 8 -126 40t-123.5 83
t-76 116.5t15.5 140.5q21 42 55.5 63.5t70 22t70 -9.5t59 -28.5t33.5 -38.5q10 -25 12 -50.5t-1 -38.5l-4 -13q2 2 4.5 6t7.5 16.5t7 26.5t0 35t-12 42q14 12 30.5 21.5t43.5 18.5t58.5 1t61.5 -34q31 -29 37.5 -72.5t-9.5 -82t-53.5 -64.5t-84.5 -23q4 -42 -12 -42
q-2 0 -2.5 -6t0 -13t-0.5 -12q0 -3 -3 -6.5t-5 -5.5l-2 -2v-18q81 20 137.5 54.5t82.5 73.5t34 81.5t-3.5 81t-34.5 70.5t-55 50zM530 504q-6 3 -11.5 9t-7.5 11l-2 5q-17 -25 -19.5 -46t5.5 -33t18.5 -20.5t19.5 -11.5l10 -3q-15 7 -22 19t-6 23.5t4 22.5t7 17z" />
    <glyph glyph-name="koubei1" unicode="&#xe602;" 
d="M863 650q0 21 -15 36t-36 15h-600q-22 0 -36.5 -14.5t-14.5 -36.5q-7 -160 0 -212q4 -33 22 -74t47.5 -83t75.5 -79.5t98 -57.5v-47q0 -12 9 -21t22 -9q30 -1 63.5 4t83 23t93 47t89.5 83.5t77 125.5q19 46 23 88q2 15 2.5 42.5t0 55.5t-1 54.5t-1.5 43.5zM687 371
q-12 8 -21 -4q-28 -40 -71.5 -63t-91.5 -23q-82 0 -140 58t-58 139q0 6 -4.5 11t-10.5 5t-11 -5t-5 -11q0 -94 67 -161t162 -67q56 0 106 26t82 73q9 12 -4 22zM699 493v0q0 -15 10.5 -25.5t25.5 -10.5t25.5 10.5t10.5 25.5v0q0 14 -10.5 24.5t-25.5 10.5t-25.5 -10.5
t-10.5 -24.5v0z" />
    <glyph glyph-name="huilvhuansuan" unicode="&#xe601;" 
d="M783 366h-205v-99h99v20q0 32 13 34t35 -19l106 -85q12 -10 10 -21q2 -10 -10 -19l-106 -78q-22 -20 -35 -18.5t-13 32.5v22h-99v-85q0 -24 -19.5 -41.5t-46.5 -17.5t-46.5 17.5t-19.5 41.5v85h-205q-25 0 -42 19.5t-17 46.5t17 46.5t42 19.5h205v99h-99v-21
q0 -32 -13 -34t-35 19l-106 85q-12 10 -10 21q-2 10 10 20l106 77q22 20 35 19t13 -32v-22h89l-164 174q-18 20 -17 46t21 43t47 15.5t45 -21.5l144 -155l144 155q18 20 45 21.5t47 -15.5t21 -43t-17 -46l-164 -174h195q25 0 42 -19.5t17 -47t-17 -46.5t-42 -19z" />
    <glyph glyph-name="yu" unicode="&#xe624;" 
d="M947 386q0 28 -19 51q-26 39 -64 67.5t-79.5 44t-76 23.5t-68.5 10q-9 12 -40 38t-58 46l-26 21q-23 19 -36.5 19t-15.5 -10l-1 -9v-130q-50 -27 -84 -51.5t-47 -39t-25 -28.5t-21 -20q-7 -4 -14 -4.5t-14.5 3.5t-15 9.5t-17 14.5t-17.5 17.5t-20 20t-22 20.5
q-54 48 -68 21q-4 -7 -2 -21q2 -25 36 -100q5 -16 -4 -32q-31 -62 -34 -94q-1 -17 5 -25t23 -2.5t42 27.5q10 9 21.5 20.5l20 20t18 17.5t17 15t15 9.5t14.5 3.5t14 -5q9 -6 21 -20t24.5 -28.5t47 -39t84.5 -51.5v-130q0 -4 1.5 -10t14.5 -7.5t37 17.5q103 79 124 105
q34 3 68.5 10.5t76 23t79 44t64.5 67.5q21 26 21 51zM800 339q-19 0 -32 13.5t-13 31.5q0 19 13 32t32 13t32 -13.5t13 -31.5q-2 -18 -15 -31.5t-30 -13.5z" />
    <glyph glyph-name="taobao" unicode="&#xe630;" horiz-adv-x="1264" 
d="M219 878q47 0 80.5 -31.5t33.5 -76t-33.5 -76t-80.5 -31.5t-80 31.5t-33 76t33 76t80 31.5zM314 232q-11 -37 -19 -58.5t-17 -40.5t-38.5 -85t-66.5 -150l-173 113q22 21 55 54t96 105t81 110q12 27 11.5 48.5t-9.5 38t-20 27.5t-19 17l-9 5l-132 87l71 116
q75 -59 99.5 -81t74.5 -75q37 -38 38.5 -98t-23.5 -133v0zM1252 105q-5 -54 -24 -95t-46 -66t-60 -41.5t-69 -22t-71 -7t-66.5 2.5t-55.5 8t-38 8l-14 4l22 95l80 -22q124 -8 143 91q6 32 0 59v472q0 132 -108 152t-325 -64l75 -9q0 -1 -1 -4q-21 -75 -47 -75h357v-102h-194
v-103h194v-51h-194v-205q0 5 17 12t40.5 17t34.5 18l-17 76l103 33l85 -220l-126 -55l-22 88q-24 -20 -55 -37t-77 -34.5t-109.5 -27t-135.5 -7.5q-141 -3 -164 143q-11 66 2 131l5 17h154q-1 -14 -4 -47.5t-2 -53.5t10 -33q20 -35 68 -38l-1 -7v230h-242v51h242v103h-38
q-50 -51 -96 -103v0l-67 62q57 63 125 192q-38 -16 -74 -33q-41 -53 -85 -100q0 -1 -27.5 15.5t-54.5 32.5l-28 17q32 29 62 73t50.5 86t36 80t22.5 62l8 23l159 -47q-13 -33 -40 -83q130 39 237.5 53.5t175.5 7t119.5 -26t77.5 -45t42 -49.5t19 -40l4 -16q1 -9 3.5 -25.5
t8 -71t8 -113.5t0 -150.5t-11.5 -184.5v0z" />
    <glyph glyph-name="qinqing" unicode="&#xe62f;" 
d="M922 143l-63 121q-12 23 -38 19q43 30 43 81q0 41 -29.5 70.5t-71 29.5t-71 -29.5t-29.5 -70.5q0 -46 36 -76l-92 44q-7 3 -15 3h-6l-129 174q-5 6 -11 11q-15 13 -34 17q28 19 44.5 49t16.5 65q0 57 -40.5 97t-98.5 40t-98.5 -40t-40.5 -97q0 -36 17 -66t46 -49
q-20 -7 -34.5 -22t-19.5 -35l-91 -192q-9 -20 -3 -41t24 -31l14 -7q28 -16 53 6v-192q0 -21 15.5 -36t36.5 -15h11q21 0 36 15t15 36v163h44v-163q0 -21 15.5 -36t36.5 -15h11q21 0 36.5 15t15.5 36v241v0v0.5v1v0.5v25l29 -40q13 -17 33.5 -19.5t35.5 11.5l6 5l73 -34v-207
q0 -14 10.5 -24.5t24.5 -10.5h19q15 0 25.5 10.5t10.5 24.5v55h35v-55q0 -14 10 -24.5t25 -10.5h19q15 0 25 10.5t10 24.5v78q5 -1 9 -1q9 0 16 4l16 8q14 7 18.5 20.5t-2.5 27.5z" />
    <glyph glyph-name="shoukuan" unicode="&#xe6d1;" horiz-adv-x="1263" 
d="M731 440q11 0 18.5 8.5t7.5 21t-7 20t-19 7.5h-63l65 65q8 8 8 20.5t-8 21.5q-9 8 -21 8t-21 -8l-60 -60l-59 60q-8 8 -20.5 8t-21 -8.5t-8.5 -21t9 -20.5l63 -65h-60q-12 0 -19.5 -8t-7.5 -20t7 -20.5t20 -8.5h63v-35h-63q-12 0 -19.5 -7.5t-7.5 -20t7 -21t20 -8.5h63
v-42q0 -15 10 -25.5t25 -10.5t25.5 10t10.5 26v42h64q24 0 24 27q0 30 -27 30h-62v35h64zM1140 884h-1017q-43 0 -74 -31t-31 -74v-790q0 -43 31 -74t74 -31h1017q44 0 74.5 31t30.5 74v790q0 43 -30.5 74t-74.5 31zM1009 319l-309 -270q-30 -25 -69 -25q-38 0 -68 24
l-309 270q-11 13 -11 30q0 15 9 26.5t23 15.5q5 1 11 1h91v282q0 31 20.5 51t50.5 20h366q30 0 50.5 -20t20.5 -51v-281h92q18 -1 30 -13.5t12 -30.5q0 -17 -10 -29z" />
    <glyph glyph-name="search" unicode="&#xe605;" 
d="M873 77v0v0v0q10 -12 10 -26q0 -15 -11 -27q-11 -11 -27 -11v0q-7 0 -13 2q-9 3 -16 11v-1l-204 206q-74 -52 -165 -52q-9 0 -19 1q-18 1 -35 6q-56 3 -117 51q-41 24 -77 87q-29 49 -35 109l-1 -1q-2 16 -2 32q0 4 0 3q0 25 5 50q10 67 52 122q10 20 40 44.5t66 40.5
l-10 -3q10 7 41 18q43 16 92 16v0q20 0 38 -3q49 -6 94 -29q73 -39 113 -109l-2 7q11 -12 26 -54q20 -56 18 -113q-4 -95 -66 -171l206 -206h-1v0zM691 455v13q0 46 -18 88q-19 53 -61 91q-8 7 0 -1q-5 5 -10 9q-47 40 -108 52q-15 3 0 1q-24 3 -45 3q-15 0 -30 -2
q-2 0 -6 -1h-5q-66 -11 -116 -53q-19 -12 -39.5 -41t-32.5 -64q-1 3 -3 -3q-10 -24 -12 -69q-3 -62 23 -115q31 -69 97 -106q0 -3 12 -9.5t34 -13t44 -9.5q1 -2 11.5 -2.5t28 0t33.5 3.5q46 8 84 31q7 2 27 18.5t37 37.5l-1 -4q12 11 33 53q2 3 3 7l-14 -26q4 7 8 15v0
q25 48 26 104v-7z" />
    <glyph glyph-name="yunshuzhongwuliu" unicode="&#xe883;" 
d="M823 512h-119v160q0 13 -9.5 22.5t-22.5 9.5h-576q-13 0 -22.5 -9.5t-9.5 -22.5v-448q0 -13 9.5 -22.5t22.5 -9.5h32q0 -53 37.5 -90.5t90.5 -37.5t90.5 37.5t37.5 90.5h256q0 -53 37.5 -90.5t90.5 -37.5t90.5 37.5t37.5 90.5h32q13 0 22.5 9.5t9.5 22.5v90q0 6 -2 9
l-121 182q-5 7 -14 7zM269 130q-34 -7 -58 17t-17 58q3 19 17 33t33 17q34 7 58 -17t17 -58q-4 -19 -18 -33t-32 -17zM781 130q-34 -7 -58 17t-17 58q3 19 17 33t33 17q34 7 58 -17t17 -58q-4 -19 -18 -33t-32 -17zM704 320v128h95q9 0 13 -7l84 -121h-192z" />
    <glyph glyph-name="caigou-xianxing" unicode="&#xe887;" 
d="M822 640l-79 -256h-401l-70 256h550zM216 832h-152v-64h105l18 -64l100 -362q3 -7 7 -12l-52 -83q-10 -9 -10 -23q0 -13 9.5 -22.5t22.5 -9.5h568v64h-509l40 64h405q22 0 30 22l97 319q5 16 -4 29.5t-25 13.5h-613l-19 64zM320 64zM256 64q0 -26 19 -45t45 -19t45 19
t19 45t-19 45t-45 19t-45 -19t-19 -45zM768 64zM704 64q0 -26 19 -45t45 -19t45 19t19 45t-19 45t-45 19t-45 -19t-19 -45z" />
    <glyph glyph-name="youhuijuan-xianxing" unicode="&#xe898;" 
d="M896 640v-114q-64 -57 -64 -142.5t64 -143.5v-112h-768v113q64 57 64 143t-64 143v113h768zM928 704h-832q-13 0 -22.5 -9.5t-9.5 -22.5v-178q29 -18 46.5 -47t17.5 -64t-17.5 -64.5t-46.5 -45.5v-177q0 -13 9.5 -22.5t22.5 -9.5h832q13 0 22.5 9.5t9.5 22.5v177
q-29 17 -46.5 46t-17.5 64t17.5 64.5t46.5 46.5v178q0 13 -9.5 22.5t-22.5 9.5zM640 448v-64h-96v-64h96v-64h-96v-96h-64v96h-96v64h96v64h-96v64h95l-108 107l46 46l96 -96l95 95l46 -46l-107 -106h93z" />
    <glyph glyph-name="hezuoguanxi-xianxing" unicode="&#xe8a8;" 
d="M768.5 704q26.5 0 45.5 -19t19 -45t-19 -45t-45.5 -19t-45 19t-18.5 45t18.5 45t45 19zM255.5 704q26.5 0 45 -19t18.5 -45t-18.5 -45t-45 -19t-45.5 19t-19 45t19 45t45.5 19zM768 384q26 0 45 -19t19 -45v-256h-128v256q0 26 19 45t45 19zM256 384q26 0 45 -19t19 -45
v-256h-128v256q0 26 19 45t45 19zM769 768q-53 0 -90.5 -37.5t-37.5 -90.5t37.5 -90.5t90.5 -37.5t90.5 37.5t37.5 90.5t-37.5 90.5t-90.5 37.5zM255 768q-53 0 -90.5 -37.5t-37.5 -90.5t37.5 -90.5t90.5 -37.5t90.5 37.5t37.5 90.5t-37.5 90.5t-90.5 37.5zM768 448
q-53 0 -90.5 -37.5t-37.5 -90.5v-51l-129 -75l-127 74v49q0 47 -29.5 83.5t-74.5 45.5q-60 11 -106 -28t-46 -98v-288q0 -13 9.5 -22.5t22.5 -9.5h192q13 0 22.5 9.5t9.5 22.5v162l110 -64h1.5h0.5q6 -4 16 -4q7 0 16 4l112 65v-163q0 -13 9.5 -22.5t22.5 -9.5h192
q13 0 22.5 9.5t9.5 22.5v288q0 53 -37.5 90.5t-90.5 37.5z" />
    <glyph glyph-name="caomei" unicode="&#xe692;" 
d="M826 638q-41 44 -100.5 58t-186.5 24q-17 1 -26 2v0h-0.5h-1h-1h-0.5v0q-9 -1 -26 -2q-54 -4 -79.5 -6.5t-63 -8.5t-58.5 -13.5t-44 -21t-41 -32.5q-5 -6 -14 -17t-26 -46.5t-23 -73t6.5 -93t49.5 -109.5l189 -277q54 -79 130 -82v0h0.5h1h1h0.5v0q77 3 131 82l189 277
q22 31 35 62.5t17.5 58.5t4.5 53t-5.5 47t-12 40t-15 33t-15.5 24t-11.5 15.5zM513 -80h-1h-2h-3q-85 5 -144 90l-189 277q-89 130 -49 260q20 64 58 105q20 21 44.5 35.5t46 23t61 14.5t66 8.5t82.5 6.5q13 1 22 2q3 1 7 1v0v0h1q3 0 5 -1q12 -1 22 -2q57 -4 83 -6.5
t65.5 -8.5t61.5 -14.5t46.5 -23t44.5 -35.5q38 -41 58 -105q40 -130 -49 -260l-189 -277q-59 -85 -144 -90h-4v0zM512 702v0q-8 -1 -26 -2q-52 -4 -76.5 -6.5t-61 -8t-56 -12.5t-41.5 -19.5t-38 -29.5v0q-6 -7 -14.5 -18t-23.5 -43.5t-20 -67t7 -85t46 -100.5l189 -276
q48 -71 114 -73h0.5h1.5q66 2 114 73l189 276q34 50 46 100.5t7 85t-20 67t-23.5 43.5t-14.5 18v0q-38 40 -94.5 53t-179.5 23q-21 1 -25 2v0zM501 613l71 38l149 21l-87 44l-15 50l-118 -28l-118 28l-15 -50l-86 -44l148 -17zM501 596v0q-5 0 -9 2l-67 41l-145 16
q-7 0 -11.5 5t-4.5 12q0 10 10 15l80 41l13 43q4 12 16 12h4l114 -27l114 27h4q13 0 16 -12l14 -43l80 -41q9 -5 9 -15q0 -6 -4.5 -11t-10.5 -6l-146 -21l-68 -36q-4 -2 -8 -2v0zM340 682l92 -10q4 0 7 -2l63 -37l62 33l6 2l95 13l-38 20q-7 3 -9 10l-11 35l-102 -24
q-2 -1 -4 -1t-4 1l-102 24l-11 -35q-2 -7 -8 -10zM457 418q-1 8 -8 8q-3 0 -5 -2t-2 -4v-2l7 -17zM516 553q-1 8 -7 8q-7 -1 -8 -8l8 -18zM582 418q-1 8 -8 8q-3 0 -5 -2t-2 -4v-2l7 -17zM640 572q-1 8 -8 8q-3 0 -5 -2t-2 -4v-2l7 -17zM707 436q-1 8 -8 8q-3 0 -5 -2t-2 -4
v-2l7 -17zM332 436q-1 8 -8 8q-3 0 -5 -2t-2 -4v-2l8 -17zM207 454q-1 8 -8 8q-3 0 -5 -2t-2 -4v-2l8 -17zM832 454q0 3 -2 5.5t-6 2.5q-3 0 -5 -2t-2 -4v-2l7 -17zM269 590q-1 8 -8 8t-8 -8l8 -17zM393 572q-1 8 -8 8q-3 0 -5 -2t-3 -4v-2l8 -17zM764 590q-1 8 -8 8t-8 -8
l8 -17zM516 284q-1 8 -7 8q-4 0 -6 -2t-2 -4v-2l8 -17zM520 36q-1 8 -8 8q-3 0 -5 -2t-2 -4l-1 -2l8 -18zM640 304q-1 8 -8 8q-3 0 -5 -2t-2 -4v-2l7 -18zM269 322q-1 8 -8 8q-3 0 -5 -2t-2 -4l-1 -2l8 -17zM393 304q-1 8 -8 8q-3 0 -5 -2t-3 -4v-2l8 -18zM764 322
q-1 8 -8 8q-3 0 -5 -2t-2 -4l-1 -2l8 -17zM467 158q-1 8 -8 8t-7 -8l7 -17zM580 156q0 8 -7 8t-8 -8l8 -17zM361 192q-1 8 -8 8q-3 0 -5 -2t-2 -4l-1 -2l8 -17zM690 194q-1 8 -8 8t-7 -8l7 -17zM502 679q-7 0 -12.5 4.5t-7.5 11.5q-19 81 0 139q4 14 19 14q9 0 15 -6t6 -14
q0 -3 -1 -7q-6 -17 -6.5 -43t2 -43.5t5.5 -29.5v-5q0 -9 -6 -15t-14 -6v0zM743 291q-8 0 -14 6t-6 15q0 8 5 14q3 3 8 9t16.5 23.5t20 37t15.5 48t5 56.5v1q0 8 6 14t14 7q8 0 14.5 -6t6.5 -14q2 -33 -5.5 -66.5t-17.5 -56t-23.5 -43t-19.5 -27.5t-10 -11q-6 -7 -15 -7v0z
M789 574zM763 574q0 -11 7.5 -18.5t18.5 -7.5t18.5 7.5t7.5 18.5t-7.5 18.5t-18.5 7.5t-18.5 -7.5t-7.5 -18.5z" />
    <glyph glyph-name="dayouzi" unicode="&#xe693;" 
d="M688 517q-18 15 -33 37t-25.5 40.5t-24.5 35.5t-38 26.5t-59 9.5q-39 -1 -63 -11t-35.5 -27.5t-20 -36.5t-23 -42t-35.5 -38q-74 -55 -120 -124.5t-46 -148.5q0 -138 96.5 -215.5t252.5 -77.5t252.5 77.5t96.5 215.5q0 133 -175 279zM514 -76q-168 0 -269 85.5
t-101 228.5q0 78 45 152.5t130 136.5q13 9 23 22t14.5 22l12.5 25q10 22 17.5 33.5t22.5 27t39.5 22.5t59.5 7h2q32 0 56 -7t41 -23t25.5 -28t21.5 -33q26 -45 47 -62q183 -152 183 -295t-101 -228.5t-269 -85.5zM510 645h-2q-26 0 -43 -4t-28 -15t-16.5 -19.5t-14.5 -27.5
t-14.5 -29.5t-18.5 -27t-30 -28.5q-26 -19 -50 -41.5t-50 -55.5t-42 -74.5t-16 -84.5q0 -126 88.5 -199.5t240.5 -73.5t240.5 73.5t88.5 199.5q0 123 -168 263q-27 22 -57 73q-11 20 -18 29.5t-19.5 21t-29.5 16t-41 4.5zM482 635.5q0 -6.5 7 -11t17 -4.5t17.5 4.5t7.5 11
t-7.5 11.5t-17.5 5t-17 -5t-7 -11.5zM506.5 603q-17.5 0 -30 9.5t-12.5 23.5t12.5 23.5t30 9.5t29.5 -9.5t12 -23.5t-12 -23.5t-29.5 -9.5zM506 636q-1 19 -2 48t5 83t22 65zM506 619q-7 0 -12 4.5t-5 11.5q-3 43 -1 90q4 101 33 121q4 3 10 3q7 0 12 -5t5 -12q0 -9 -7 -14
q-11 -8 -16.5 -62t-1.5 -119v-1q0 -7 -5 -12t-12 -5v0zM650 516q55 -43 118 -60t120 -8q-44 52 -56 83q-1 1 -6 13.5l-8 20t-10.5 22t-15 25t-19 23.5t-24.5 23q-55 42 -118 59t-119 9q57 -48 73 -104q20 -71 65 -106zM849 424q-115 0 -211 76q-51 39 -73 117q-14 49 -66 93
q-8 6 -8 16q0 7 5.5 13t12.5 7q20 3 40 3v0q113 0 212 -75q53 -40 86 -127l4 -8q11 -28 53 -78q4 -6 4 -13.5t-5 -13t-12 -7.5q-21 -3 -41 -3h-1zM559 708q34 -40 46 -80q18 -65 58 -96q84 -66 184 -67q-23 31 -34 58q-1 3 -4 10q-29 75 -72 108q-83 63 -178 67zM758 103z
M748 103.5q0 -4.5 3 -8t7.5 -3.5t7.5 3.5t3 8t-3 7.5t-7.5 3t-7.5 -3t-3 -7.5zM531 286zM520 285.5q0 -4.5 3.5 -7.5t8 -3t7.5 3t3 7.5t-3 8t-7.5 3.5t-8 -3.5t-3.5 -8zM613 266zM602 266v0q0 -5 3 -8t7.5 -3t7.5 3t3 8v0v0q0 4 -3 7.5t-7.5 3.5t-7.5 -3.5t-3 -7.5v0z
M506 137zM495 137.5q0 -4.5 3 -8t7.5 -3.5t8 3.5t3.5 8t-3.5 7.5t-8 3t-7.5 -3t-3 -7.5zM705 380zM694 380v0q0 -5 3.5 -8t8 -3t7.5 3t3 8v0v0q0 4 -3 7.5t-7.5 3.5t-8 -3.5t-3.5 -7.5v0zM713 143zM702 143.5q0 -4.5 3.5 -8t8 -3.5t7.5 3.5t3 8t-3 7.5t-7.5 3t-8 -3
t-3.5 -7.5zM652 102zM641 101.5q0 -4.5 3 -7.5t7.5 -3t8 3t3.5 7.5t-3.5 7.5t-8 3t-7.5 -3t-3 -7.5zM659 23zM648 23.5q0 -4.5 3 -8t7.5 -3.5t8 3.5t3.5 8t-3.5 7.5t-8 3t-7.5 -3t-3 -7.5zM626 56zM615 55.5q0 -4.5 3 -7.5t7.5 -3t8 3t3.5 7.5t-3.5 8t-8 3.5t-7.5 -3.5
t-3 -8zM346 48zM335 48.5q0 -4.5 3 -8t7.5 -3.5t8 3.5t3.5 8t-3.5 7.5t-8 3t-7.5 -3t-3 -7.5zM552 79zM541 79v0q0 -4 3 -7.5t7.5 -3.5t8 3.5t3.5 7.5v0v0q0 5 -3.5 8t-8 3t-7.5 -3t-3 -8v0zM716 74zM705 74v0q0 -4 3 -7.5t7.5 -3.5t8 3.5t3.5 7.5v0v0q0 5 -3.5 8t-8 3
t-7.5 -3t-3 -8v0zM697 100zM686 99.5q0 -4.5 3 -7.5t7.5 -3t8 3t3.5 7.5t-3.5 8t-8 3.5t-7.5 -3.5t-3 -8zM771 165zM760 165.5q0 -4.5 3.5 -8t8 -3.5t7.5 3.5t3 8t-3 7.5t-7.5 3t-8 -3t-3.5 -7.5zM520 -1zM509 -1.5q0 -4.5 3 -7.5t7.5 -3t8 3t3.5 7.5t-3.5 8t-8 3.5
t-7.5 -3.5t-3 -8zM450 33zM439 33.5q0 -4.5 3 -8t8 -3.5t8 3.5t3 8t-3 7.5t-8 3t-8 -3t-3 -7.5zM658 163zM647 163.5q0 -4.5 3.5 -8t8 -3.5t7.5 3.5t3 8t-3 7.5t-7.5 3t-8 -3t-3.5 -7.5zM743 325zM732 324.5q0 -4.5 3.5 -7.5t8 -3t7.5 3t3 7.5t-3 8t-7.5 3.5t-8 -3.5
t-3.5 -8zM526 539zM515 539v0q0 -5 3.5 -8t8 -3t7.5 3t3 8v0v0q0 5 -3 8t-7.5 3t-8 -3t-3.5 -8v0zM682 214zM671 214.5q0 -4.5 3 -8t7.5 -3.5t8 3.5t3.5 8t-3.5 7.5t-8 3t-7.5 -3t-3 -7.5zM784 266zM773 266v0q0 -5 3 -8t7.5 -3t8 3t3.5 8v0v0q0 5 -3.5 8t-8 3t-7.5 -3
t-3 -8v0zM269 96v0q-12 0 -18 11q-25 45 -30 106q-9 123 88 209q6 5 14 5t14 -6t6 -14q0 -10 -7 -16q-36 -32 -54.5 -71.5t-20 -70t5.5 -62.5t11.5 -43.5t8.5 -17.5q2 -4 2 -9q0 -9 -6 -15t-14 -6zM369 444zM345 444v0q0 -9 7 -16t17 -7t17 7t7 16v0v0q0 10 -7 17t-17 7
t-17 -7t-7 -17v0z" />
    <glyph glyph-name="mangguo" unicode="&#xe697;" 
d="M740 765q-56 -39 -108.5 -103.5t-90.5 -145.5q-40 -85 -55.5 -167t-4.5 -147q56 39 108 103.5t90 145.5q41 85 56 167t5 147zM481 182v0q-8 0 -13.5 5t-7.5 12q-11 69 5.5 154.5t57.5 171.5q38 81 92 148.5t113 108.5q6 3 12 3q7 0 13 -5t7 -12q11 -69 -5 -154.5
t-57 -171.5q-39 -81 -92.5 -148t-113.5 -108q-5 -4 -11 -4zM723 726q-98 -81 -163 -218q-69 -145 -63 -267q99 81 164 219q68 144 62 266zM852 603q-67 -19 -140.5 -64t-140.5 -109q-70 -67 -115.5 -139.5t-59.5 -136.5q68 20 141 64.5t140 108.5q70 67 115.5 139.5
t59.5 136.5zM396 134v0q-9 0 -15 6t-6 14q0 3 1 5q15 68 62.5 143t118.5 143q67 64 143 111t147 67q3 1 5 1q9 0 15 -6t6 -15q0 -2 -1 -4q-15 -69 -62.5 -143.5t-118.5 -143.5q-67 -64 -142.5 -110.5t-147.5 -66.5q-2 -1 -5 -1v0zM822 571q-124 -46 -237 -155
q-118 -114 -159 -230q124 47 237 156q118 113 159 229zM438 -45q-54 6 -103 56.5t-79 126.5t-41 168.5t11 183.5q38 168 119 251t191 80q21 0 26.5 -11.5t2.5 -28.5t1.5 -50t20.5 -65q4 -10 14 -29q26 -51 40 -82t34 -84.5t27.5 -105t2.5 -102.5q-14 -150 -86.5 -235
t-180.5 -73zM463 -67q-14 0 -28 2q-82 9 -148 103q-63 89 -85.5 215t4.5 242q38 168 121.5 257.5t200.5 89.5h9q25 -1 37.5 -14t11.5 -51q-2 -58 19 -102q5 -10 15 -29q26 -52 40.5 -84t35 -86.5t27.5 -108t2 -106.5q-13 -149 -84.5 -238.5t-177.5 -89.5zM528 801
q-103 0 -175 -80.5t-107 -234.5q-20 -83 -12.5 -164t30.5 -147t56 -114q56 -78 120 -85q104 -12 171 75q61 79 74 214q4 49 -3 98.5t-26.5 101.5t-33.5 82.5t-39 80.5q-7 14 -14 29q-27 53 -24 122q0 17 -1 21q-3 1 -9 1h-7zM445.5 -32.5q-1.5 -12.5 7.5 -22t23 -11.5t25 6
t12.5 20t-7.5 22t-23 11.5t-25 -6t-12.5 -20zM480 -80h-6q-19 3 -31 16q-13 15 -11 33q2 17 15 28t31 11q3 0 6 -1q19 -2 32 -16t11 -33q-2 -16 -15.5 -27t-31.5 -11zM478 -20q-7 0 -13 -4t-6.5 -10t4.5 -11q5 -6 14 -7t15.5 3t7.5 11q1 6 -4 11q-6 6 -15 7h-3v0zM294 273
q-7 0 -13 5.5t-7 12.5q-10 86 5 170t52 151q6 11 18 11q9 0 15 -6t6 -15q0 -5 -3 -9q-34 -63 -47.5 -140.5t-4.5 -156.5v-2q0 -9 -6 -15t-15 -6v0zM435 717q-6 -2 -27 -23t-24 -26zM384 647q-9 0 -15 6t-6 15q0 5 3 10q4 7 28 31t33 27q4 2 8 2q8 0 14 -6t6 -15
q0 -13 -11 -18q-6 -4 -22.5 -20.5t-20.5 -21.5q-6 -10 -17 -10v0z" />
    <glyph glyph-name="mugua" unicode="&#xe698;" 
d="M454 604q-12 16 -30 45t-28.5 43.5t-33 26.5t-52.5 12q-24 -2 -40.5 -7.5t-30 -19.5t-21 -25.5t-22.5 -38t-25 -43.5q-103 -116 -103 -297q0 -33 4.5 -62t11.5 -51.5t20 -42.5t24.5 -34.5t31 -28t33.5 -22t38.5 -19t40 -16t42.5 -14.5q34 10 57 18t51 21.5t46.5 28
t37.5 36t29.5 47.5t17.5 61.5t7 77.5q0 88 -30 166.5t-76 137.5zM314 -11v0q-3 0 -7 1q-41 14 -64 23t-57 27.5t-57 39.5q-81 75 -81 220q0 91 27.5 171t78.5 139q10 15 26 43q14 26 22.5 38.5t24 28.5t35 23t47.5 8v0q27 0 48 -6.5t37 -22t24.5 -27t21.5 -33.5
q19 -30 31 -45q25 -34 47 -72.5t42 -106t20 -138.5q0 -147 -78 -221q-33 -31 -76 -50.5t-106 -38.5q-3 -1 -6 -1v0zM310 710q-36 -2 -53 -17.5t-42 -59.5q-16 -30 -27 -47l-2 -2q-97 -111 -97 -284q0 -39 6.5 -72t16 -56.5t28 -43.5t34 -32.5t43 -26t46.5 -20.5t51 -18
q47 14 76.5 26.5t61 33.5t48.5 47.5t28 67t11 94.5q0 77 -26.5 153t-74.5 139q-13 16 -33 49q-16 27 -25 38.5t-26.5 21t-41.5 9.5h-2zM492 496q-59 0 -105.5 -13.5t-76 -35t-52 -55.5t-34.5 -66t-23 -76q10 -41 22 -73t34.5 -66t52 -56t76.5 -36t106 -14q181 0 297 102
q16 11 42.5 25.5t38 22t25.5 21t20 30t7 40.5q0 31 -12 53t-26.5 33t-43.5 28.5t-45 30.5q-59 46 -137 75.5t-166 29.5zM492 -16q-148 0 -226 83q-56 60 -85 179q-1 2 -1 4.5t1 5.5q12 45 25 79.5t37.5 70t56 58.5t81 38t111.5 15q70 0 138 -20.5t106.5 -42t71.5 -47.5
q15 -12 45 -30q23 -14 34 -22.5t26.5 -24.5t22.5 -36.5t6 -47.5v-1q-1 -27 -8 -47t-23 -35.5t-28.5 -23.5t-38.5 -23q-27 -15 -43 -25q-59 -52 -139 -79.5t-170 -27.5zM222 250q10 -39 21.5 -68.5t32.5 -60.5t48.5 -51t70 -32.5t97.5 -12.5q173 0 283 98q1 1 3 2
q17 10 46 27q24 13 34.5 20t22 18t15.5 24t5 33q1 19 -3 32.5t-15.5 25t-20.5 18t-30 19.5q-32 20 -49 33q-62 48 -138.5 74.5t-152.5 26.5q-56 0 -99.5 -13t-70.5 -32.5t-47.5 -51.5t-31.5 -60.5t-21 -68.5zM502 345q-99 0 -148 -27t-49 -72.5t49 -72.5t148 -27
q122 0 200 41q11 5 29 11t26 9t17.5 8.5t13 12t4.5 16.5q0 12 -8 21t-17.5 13.5t-29.5 11.5t-30 12q-92 43 -205 43zM411 294zM392 294.5q0 -7.5 5.5 -13t13.5 -5.5t13 5.5t5 13t-5 13t-13 5.5t-13.5 -5.5t-5.5 -13zM468 287zM450 287.5q0 -7.5 5.5 -13t13 -5.5t13 5.5
t5.5 13t-5.5 13t-13 5.5t-13 -5.5t-5.5 -13zM529 314zM510 314.5q0 -7.5 5.5 -13t13 -5.5t13 5.5t5.5 13t-5.5 13t-13 5.5t-13 -5.5t-5.5 -13zM512 250zM493 250.5q0 -7.5 5.5 -13t13.5 -5.5t13 5.5t5 13t-5 13t-13 5.5t-13.5 -5.5t-5.5 -13zM448 237zM429 237
q0 -8 5.5 -13.5t13.5 -5.5t13 5.5t5 13.5t-5 13t-13 5t-13.5 -5t-5.5 -13zM397 250zM379 250.5q0 -7.5 5.5 -13t13 -5.5t13 5.5t5.5 13t-5.5 13t-13 5.5t-13 -5.5t-5.5 -13zM344 244zM325 243.5q0 -7.5 5.5 -13t13 -5.5t13 5.5t5.5 13t-5.5 13t-13 5.5t-13 -5.5t-5.5 -13z
M408 193zM389 193.5q0 -7.5 5.5 -13t13 -5.5t13 5.5t5.5 13t-5.5 13t-13 5.5t-13 -5.5t-5.5 -13zM465 186zM446 186.5q0 -7.5 5.5 -13t13 -5.5t13 5.5t5.5 13t-5.5 13t-13 5.5t-13 -5.5t-5.5 -13zM549 210zM530 210q0 -8 5.5 -13.5t13.5 -5.5t13.5 5.5t5.5 13.5t-5.5 13.5
t-13.5 5.5t-13.5 -5.5t-5.5 -13.5zM492 213zM473 213.5q0 -7.5 5.5 -13t13 -5.5t13 5.5t5.5 13t-5.5 13t-13 5.5t-13 -5.5t-5.5 -13zM761 257zM743 257.5q0 -7.5 5.5 -13t13 -5.5t13 5.5t5.5 13t-5.5 13t-13 5.5t-13 -5.5t-5.5 -13zM522 180zM504 179.5q0 -7.5 5 -13
t13 -5.5t13.5 5.5t5.5 13t-5.5 13t-13.5 5.5t-13 -5.5t-5 -13zM566 247zM547 247q0 -8 5.5 -13t13.5 -5t13 5t5 13t-5 13.5t-13 5.5t-13.5 -5.5t-5.5 -13.5zM600 207zM581 206.5q0 -7.5 5.5 -13t13 -5.5t13 5.5t5.5 13t-5.5 13t-13 5.5t-13 -5.5t-5.5 -13zM600 247zM581 247
q0 -8 5.5 -13t13 -5t13 5t5.5 13t-5.5 13.5t-13 5.5t-13 -5.5t-5.5 -13.5zM583 298zM564 297.5q0 -7.5 5.5 -13t13 -5.5t13 5.5t5.5 13t-5.5 13t-13 5.5t-13 -5.5t-5.5 -13zM637 267zM618 267.5q0 -7.5 5.5 -13t13 -5.5t13 5.5t5.5 13t-5.5 13t-13 5.5t-13 -5.5t-5.5 -13z
M684 271zM665 270.5q0 -7.5 5.5 -13t13 -5.5t13 5.5t5.5 13t-5.5 13t-13 5.5t-13 -5.5t-5.5 -13zM667 220zM648 220q0 -8 5.5 -13t13.5 -5t13 5t5 13t-5 13.5t-13 5.5t-13.5 -5.5t-5.5 -13.5zM731 230zM712 230.5q0 -7.5 5.5 -13t13.5 -5.5t13 5.5t5 13t-5 13t-13 5.5
t-13.5 -5.5t-5.5 -13zM640 193zM621 193.5q0 -7.5 5.5 -13t13.5 -5.5t13 5.5t5 13t-5 13t-13 5.5t-13.5 -5.5t-5.5 -13zM278 745.5q0 -7.5 10 -12.5t23.5 -5t23.5 5t10 12.5t-10 12.5t-23.5 5t-23.5 -5t-10 -12.5zM920 247q0 -14 5.5 -23.5t12.5 -9.5t12.5 9.5t5.5 23.5
t-5.5 23.5t-12.5 9.5t-12.5 -9.5t-5.5 -23.5zM133 262q-9 0 -15 6t-6 14q0 63 10 110t35 97q5 11 18 11q8 0 14 -6t6 -14q0 -5 -2 -9q-22 -46 -31 -88t-9 -100v0q0 -9 -6 -15t-14 -6v0zM203 534zM178 534q0 -10 7 -17t17.5 -7t17.5 7t7 17t-7 17.5t-17.5 7.5t-17.5 -7.5
t-7 -17.5z" />
    <glyph glyph-name="pingguo" unicode="&#xe699;" 
d="M721 668q-27 0 -109 -15t-100 -16q-17 1 -99 16t-110 15q-45 0 -85 -16t-70 -47.5t-46.5 -81.5t-13.5 -113q4 -86 48 -195t108.5 -189.5t117.5 -84.5q37 -2 62.5 1t35.5 8.5t23.5 10.5t28.5 6q15 -1 28.5 -6t23.5 -10.5t35.5 -8.5t62.5 -1q53 4 117.5 84.5t108.5 189.5
t48 195q3 63 -13.5 113t-46.5 81.5t-70 47.5t-85 16zM631 -80v0q-49 0 -88 18q-18 8 -31 9q-13 -1 -31 -9q-39 -18 -88 -18q-15 0 -32 1q-29 2 -60 22.5t-57.5 52t-43.5 56.5t-32 51q-44 77 -71 159t-30 147q-6 134 68 211q65 69 168 69q31 0 129 -18q64 -12 80 -13
q18 1 86 13q93 18 123 18q103 0 168 -69q74 -77 68 -211q-3 -65 -30 -147t-71 -159q-15 -26 -32 -51t-43.5 -56.5t-57.5 -52t-60 -22.5q-17 -1 -32 -1zM512 -12h1q22 -1 47 -13q31 -14 71 -14v0q13 0 29 1q46 3 105.5 78t103 181t47.5 190q5 117 -56 181q-54 56 -139 56
q-26 0 -116 -17q-72 -13 -92 -14h-1h-1q-19 1 -87 13q-94 18 -121 18q-85 0 -139 -56q-61 -64 -56 -181q4 -84 47.5 -190t103 -181t105.5 -78q16 -1 29 -1q40 0 71 14q25 12 47 13h1zM187 393q3 -62 34.5 -141.5t75.5 -138.5zM297 92v0q-10 0 -16 9q-47 62 -79.5 144.5
t-35.5 146.5v1q0 8 6 14t14 7q8 0 14.5 -5.5t6.5 -14.5q3 -57 33.5 -134t72.5 -135q4 -5 4 -12q0 -9 -6 -15t-14 -6zM254 566q-26 -16 -44 -43zM210 503q-9 0 -15 6t-6 14q0 7 4 12q20 30 51 49q5 3 10 3q9 0 15 -6t6 -15q0 -11 -10 -17q-23 -14 -38 -37q-7 -9 -17 -9v0z
M599.5 772.5q-43.5 -38.5 -62 -92.5t-8.5 -109q52 -17 108.5 -5t100 50.5t62 92.5t8.5 110q-52 16 -108.5 4t-100 -50.5zM592 541v0q-36 0 -69 10q-12 4 -15 16q-10 62 10.5 120.5t67.5 100.5q28 25 74.5 42.5t84.5 17.5v0q35 0 69 -10q12 -3 14 -16q11 -62 -9.5 -120.5
t-67.5 -100.5q-28 -25 -75 -42.5t-84 -17.5v0zM547 587q22 -5 45 -5v0v0q31 0 69.5 14.5t62.5 35.5q36 32 53.5 77t12.5 93q-22 5 -45 5v0v0q-31 0 -70 -14.5t-62 -35.5q-36 -32 -53.5 -77t-12.5 -93zM518 527q3 33 2.5 62t-4.5 54t-8.5 44.5t-10.5 34.5t-10.5 25.5
t-7.5 15.5l-3 5zM518 506v0q-9 0 -15 6t-6 15v2q6 41 2 79.5t-9 63t-13.5 46.5t-12 28.5t-5.5 9.5q-5 7 -3.5 15.5t8.5 13.5q5 3 12 3q10 0 16 -9q2 -2 4.5 -6.5t9 -17t11 -27t11 -37t9 -46t4 -55.5t-2.5 -65q-1 -8 -7 -13.5t-13 -5.5z" />
    <glyph glyph-name="fanhuidingbu" unicode="&#xe612;" 
d="M554 323h-79q-15 0 -25.5 -10.5t-10.5 -24.5v-147q0 -15 10.5 -25.5t25.5 -10.5h79q15 0 25 10.5t10 25.5v0v147v0q0 14 -10 24.5t-25 10.5zM835 317h-107v-93h107q8 0 14.5 5t6.5 13v56q0 8 -6.5 13.5t-14.5 5.5zM512 865q-98 0 -187 -38t-153.5 -102.5t-102.5 -153.5
t-38 -187t38 -187t102.5 -153.5t153.5 -102.5t187 -38t187 38t153.5 102.5t102.5 153.5t38 187t-38 187t-102.5 153.5t-153.5 102.5t-187 38zM311 543l184 182q1 2 2.5 4t7 5t10.5 3.5t13 -3.5t15 -15l187 -187q1 -1 1.5 -2.5t1 -5.5t0 -7.5t-4.5 -7.5t-12 -7t-20 10
l-179 180l-176 -174q-2 -2 -4.5 -4t-10.5 -4t-15 6q-11 10 0 27zM343 323h-88v-246h-38v246h-89v40h215v-40zM628 116q0 -20 -15.5 -34t-37.5 -14h-120q-23 0 -38.5 14t-15.5 34v197q0 19 15.5 33t38.5 14h120q22 0 37.5 -14t15.5 -33v-197zM861 187h-135v-108h-39v274h39v0
h135q15 0 25 -9.5t10 -23.5v-100q0 -13 -10 -23t-25 -10z" />
  </font>
</defs>
</svg>
